<?xml version="1.0" encoding="utf-8"?>
<!-- Generator: Adobe Illustrator 16.0.0, SVG Export Plug-In . SVG Version: 6.00 Build 0)  -->
<!DOCTYPE svg PUBLIC "-//W3C//DTD SVG 1.1//EN" "http://www.w3.org/Graphics/SVG/1.1/DTD/svg11.dtd">
<svg version="1.1" id="Layer_1" xmlns="http://www.w3.org/2000/svg" xmlns:xlink="http://www.w3.org/1999/xlink" x="0px" y="0px"
	 width="841.89px" height="595.28px" viewBox="0 0 841.89 595.28" enable-background="new 0 0 841.89 595.28" xml:space="preserve">
<g>
	<path fill="#FDBC5A" d="M337.571,248.966h-21.217v7.957h6.006v25.663c0,10.453-4.992,13.027-12.246,13.027
		c-8.736,0-11.078-5.07-11.078-13.027v-25.663h4.914v-7.957h-21.217v7.957h4.916v27.614c0,12.012,3.898,19.969,21.84,19.969
		c15.99,0,23.166-5.617,23.166-22.621v-24.961h4.916V248.966z"/>
	<path fill="#FDBC5A" d="M528.119,255.987c4.523,0,7.332-2.729,7.332-6.786s-2.809-6.786-7.332-6.786
		c-4.525,0-7.332,2.729-7.332,6.786S523.594,255.987,528.119,255.987z"/>
	<path fill="#FDBC5A" d="M533.969,295.613v-32.84h-16.225v7.957h5.305v24.883h-7.252V277.75c0-9.75-4.445-15.913-14.119-15.913
		c-7.176,0-11.699,3.51-13.65,9.204h-0.154c-1.094-6.084-5.305-9.204-12.014-9.204c-6.785,0-11.855,3.275-14.119,9.204h-0.154
		c0.623-2.808,0.623-5.46,0.623-8.269h-15.99v7.957h5.305v24.883h-7.02c0.156-5.773,0.391-11.389,0.391-18.098
		c0-11.856-6.941-15.678-17.863-15.678c-7.254,0-13.65,2.73-16.3,4.212v10.375h9.359v-5.46c1.873-0.702,5.227-1.17,6.787-1.17
		c5.146,0,7.721,1.638,7.721,7.8v1.951c-7.955,0-13.494,0.389-17.627,1.871c-4.291,1.561-8.191,5.383-8.191,11.232
		c0,1.02,0.126,2.011,0.354,2.965h-3.391V277.75c0-9.75-4.447-15.913-14.119-15.913c-7.176,0-11.701,3.51-13.65,9.204h-0.156
		c-1.092-6.084-5.305-9.204-12.012-9.204c-6.787,0-11.857,3.275-14.119,9.204h-0.156c0.625-2.808,0.625-5.46,0.625-8.269h-15.992
		v7.957h5.305v24.883h-4.445v7.955h20.047v-7.955h-4.682v-13.572c0-6.162,2.887-10.843,8.658-10.843c4.135,0,7.1,2.028,7.1,7.644
		v16.771h-3.979v7.955h19.578v-7.955h-4.68v-13.572c0-6.553,3.354-10.843,8.658-10.843c4.135,0,7.098,2.028,7.098,7.644v16.771
		h-3.977v7.955h19.578v-4.778c2.042,3.388,6.008,5.716,12.007,5.716c6.865,0,10.609-2.887,13.338-9.049h0.156
		c-0.389,1.561-0.545,2.963-0.545,5.615v2.496h31.744v-7.955h-4.68v-13.572c0-6.162,2.887-10.843,8.658-10.843
		c4.135,0,7.098,2.028,7.098,7.644v16.771h-3.979v7.955h19.58v-7.955h-4.68v-13.572c0-6.553,3.354-10.843,8.658-10.843
		c4.133,0,7.098,2.028,7.098,7.644v16.771h-3.979v7.955h37.75v-7.955H533.969z M425.707,296.549c-4.291,0-6.008-2.496-6.008-4.914
		c0-3.51,2.809-5.383,11.701-5.383h3.043C434.443,293.74,430.074,296.549,425.707,296.549z"/>
</g>
</svg>
