<?xml version="1.0" encoding="utf-8"?>
<!-- Generator: Adobe Illustrator 16.0.0, SVG Export Plug-In . SVG Version: 6.00 Build 0)  -->
<!DOCTYPE svg PUBLIC "-//W3C//DTD SVG 1.1//EN" "http://www.w3.org/Graphics/SVG/1.1/DTD/svg11.dtd">
<svg version="1.1" id="Layer_1" xmlns="http://www.w3.org/2000/svg" xmlns:xlink="http://www.w3.org/1999/xlink" x="0px" y="0px"
	 width="300px" height="80px" viewBox="0 0 300 80" enable-background="new 0 0 300 80" xml:space="preserve">
<g>
	<path fill="#FFFFFF" d="M66.713,12.329H42.346v9.139h6.898v29.474c0,12.005-5.733,14.961-14.064,14.961
		c-10.033,0-12.723-5.823-12.723-14.961V21.467h5.644v-9.139H3.733v9.139h5.646v31.714c0,13.796,4.477,22.934,25.083,22.934
		c18.365,0,26.606-6.451,26.606-25.979V21.468h5.646V12.329L66.713,12.329z"/>
	<path fill="#FFFFFF" d="M285.556,20.392c5.195,0,8.421-3.134,8.421-7.793c0-4.66-3.226-7.794-8.421-7.794
		c-5.197,0-8.421,3.134-8.421,7.794C277.135,17.258,280.358,20.392,285.556,20.392z"/>
	<path fill="#FFFFFF" d="M292.273,65.902V28.186h-18.633v9.139h6.092v28.578h-8.329V45.387c0-11.198-5.104-18.276-16.215-18.276
		c-8.241,0-13.437,4.032-15.676,10.571h-0.176c-1.256-6.987-6.094-10.571-13.799-10.571c-7.791,0-13.614,3.761-16.214,10.571h-0.178
		c0.716-3.225,0.716-6.271,0.716-9.497h-18.363v9.138h6.092V65.9h-8.062c0.18-6.63,0.449-13.08,0.449-20.785
		c0-13.616-7.972-18.006-20.516-18.006c-8.331,0-15.677,3.135-18.721,4.837v11.915h10.749v-6.271
		c2.151-0.806,6.005-1.344,7.795-1.344c5.91,0,8.867,1.882,8.867,8.958v2.241c-9.135,0-15.496,0.448-20.245,2.148
		c-4.928,1.795-9.405,6.183-9.405,12.898c0,1.173,0.145,2.312,0.406,3.405h-3.895V45.387c0-11.198-5.107-18.276-16.216-18.276
		c-8.241,0-13.438,4.032-15.677,10.571h-0.179c-1.254-6.987-6.092-10.571-13.795-10.571c-7.795,0-13.618,3.761-16.216,10.571h-0.179
		c0.718-3.225,0.718-6.271,0.718-9.497H65.1v9.138h6.093V65.9h-5.105v9.139h23.024V65.9h-5.377V50.314
		c0-7.077,3.315-12.454,9.943-12.454c4.749,0,8.154,2.329,8.154,8.779V65.9h-4.57v9.139h22.485V65.9h-5.375V50.314
		c0-7.527,3.852-12.454,9.944-12.454c4.749,0,8.152,2.329,8.152,8.779V65.9h-4.567v9.139h22.484V69.55
		c2.345,3.892,6.901,6.565,13.79,6.565c7.885,0,12.185-3.314,15.318-10.394h0.18c-0.446,1.794-0.626,3.404-0.626,6.45v2.867h36.458
		V65.9h-5.375V50.314c0-7.077,3.315-12.454,9.944-12.454c4.748,0,8.151,2.329,8.151,8.78v19.262h-4.569v9.137h22.487v-9.137h-5.375
		V50.314c0-7.527,3.853-12.454,9.943-12.454c4.746,0,8.151,2.329,8.151,8.78v19.262h-4.568v9.137h43.354v-9.137H292.273
		L292.273,65.902z M167.937,66.978c-4.928,0-6.899-2.867-6.899-5.645c0-4.03,3.226-6.182,13.438-6.182h3.495
		C177.971,63.752,172.952,66.978,167.937,66.978z"/>
</g>
</svg>
